<svg width="71" height="71" viewBox="0 0 71 71" fill="none" xmlns="http://www.w3.org/2000/svg">
<rect opacity="0.5" x="1" y="1" width="69" height="69" rx="34.5" stroke="#A89078" stroke-width="0.5"/>
<g clip-path="url(#clip0_531_115)">
<path d="M35.5119 57C33.1414 56.1103 31.0447 54.9275 29.0863 53.5544C26.7653 51.9268 24.8146 49.9031 23.0491 47.6841C20.4648 44.4313 18.6967 40.7826 17.4919 36.8639C16.986 35.2156 16.5113 33.5391 16.3888 31.7958C16.2871 30.3481 16.0784 28.9056 16.0211 27.4579C15.9663 26.0822 16.0445 24.7014 16.0654 23.3283C18.0447 22.5698 19.9093 21.8575 21.7713 21.1401C24.6764 20.0242 27.5789 18.9108 30.4814 17.7922C31.9157 17.242 33.3579 16.7097 34.7739 16.1234C35.5745 15.7917 36.2369 16.1826 36.9045 16.4371C41.5908 18.2294 46.2614 20.0576 50.9398 21.8678C52.2124 22.3589 53.4877 22.8372 54.7811 23.3283C55.0837 25.1257 55.0211 26.9256 54.9037 28.6973C54.7316 31.2969 54.2752 33.8605 53.545 36.3882C52.4758 40.0883 50.9268 43.5262 48.6554 46.6632C47.2602 48.5892 45.6955 50.3634 43.9091 51.9242C41.9846 53.6058 39.8122 54.9532 37.4835 56.046C36.8237 56.3546 36.1691 56.6786 35.5145 56.9923L35.5119 57ZM35.2746 54.1998C38.1563 52.9707 40.6154 51.4845 42.7878 49.5791C44.6054 47.9875 46.0814 46.095 47.3906 44.0739C49.0126 41.572 50.1549 38.8618 50.9555 36.0127C51.3023 34.7759 51.5501 33.5083 51.8082 32.2483C51.9751 31.4306 52.1003 30.6026 52.1994 29.7721C52.3141 28.8104 52.4054 27.8436 52.4498 26.8768C52.4784 26.2802 52.4002 25.6785 52.3715 25.1077C51.6022 24.83 50.9659 24.614 50.3374 24.3749C48.3581 23.6215 46.3761 22.8681 44.402 22.1018C41.6612 21.0373 38.9282 19.9522 36.1795 18.9056C35.8249 18.7693 35.3503 18.6665 35.0191 18.7822C33.3344 19.3813 31.6784 20.0653 30.012 20.7081C26.6219 22.0169 23.2343 23.3283 19.8389 24.6243C18.5637 25.1103 18.4516 25.2028 18.4907 26.5991C18.5141 27.481 18.6967 28.3579 18.7254 29.2398C18.7827 30.9035 19.1817 32.5054 19.4921 34.128C19.8546 36.023 20.5065 37.8204 21.2289 39.5843C22.4154 42.4822 24.0584 45.1153 26.1368 47.4989C27.4042 48.9543 28.7942 50.2605 30.4084 51.3045C32.0148 52.3433 33.6995 53.2639 35.2746 54.1921V54.1998Z" fill="#A89078"/>
<path d="M36.8864 44.966C36.1327 44.966 35.4208 44.9609 34.7114 44.966C34.4115 44.9686 34.2759 44.8452 34.2811 44.5469C34.289 44.1201 34.2733 43.6907 34.2864 43.2638C34.2968 42.9835 34.2003 42.8473 33.9056 42.7778C33.2745 42.6338 32.6486 42.4641 32.0306 42.2713C31.4517 42.0887 30.8831 41.865 30.1816 41.613C30.3381 41.0473 30.4763 40.4765 30.6563 39.9185C30.8675 39.2551 30.9249 39.2448 31.6029 39.448C32.8468 39.8182 34.0803 40.2554 35.3477 40.5202C36.3413 40.7285 37.2906 40.4045 38.0208 39.6691C38.4641 39.2217 38.2268 38.296 37.5931 38.0286C36.7064 37.6557 35.7859 37.3677 34.894 37.0052C33.9291 36.6143 32.9329 36.2646 32.0384 35.7504C30.1243 34.6498 30.0278 31.9602 31.4438 30.4894C32.2236 29.682 33.2015 29.2963 34.2759 28.9903V27.1672H36.8316C36.8864 27.8126 36.9437 28.4683 36.9933 29.052C38.1511 29.3529 39.1526 29.6152 40.1879 29.8851C39.9219 30.762 39.695 31.5102 39.4785 32.2199C38.5215 32.0348 37.6348 31.8574 36.7481 31.6954C35.8458 31.5308 34.9227 31.2968 34.0595 31.7674C33.697 31.9628 33.3162 32.2842 33.1546 32.6416C32.9381 33.1199 33.3293 33.6959 33.9265 33.9144C35.1678 34.367 36.4378 34.7424 37.6635 35.2284C38.7483 35.6578 39.8932 36.0718 40.4356 37.2366C40.9806 38.4117 40.9337 39.5637 40.36 40.7465C39.7524 42.0039 38.6258 42.5181 37.4079 42.8884C37.0063 43.0118 36.8864 43.1661 36.8864 43.5184C36.8864 43.9658 36.8864 44.4158 36.8864 44.966Z" fill="#A89078"/>
</g>
<defs>
<clipPath id="clip0_531_115">
<rect width="39" height="41" fill="white" transform="translate(16 16)"/>
</clipPath>
</defs>
</svg>
