<svg width="71" height="71" viewBox="0 0 71 71" fill="none" xmlns="http://www.w3.org/2000/svg">
<rect opacity="0.5" x="1" y="1" width="69" height="69" rx="34.5" stroke="#A89078" stroke-width="0.5"/>
<g clip-path="url(#clip0_531_94)">
<path d="M35.4523 47.8804H31.2822V52H21V43.7898C24.5504 40.2398 28.1256 36.6671 31.6532 33.1378C30.5008 28.575 32.2169 24.2338 35.4232 21.5537C39.6721 18.0037 45.5707 18.476 49.0838 20.9945C53.3844 24.0785 54.9803 28.8256 53.4093 33.9497C52.5886 36.6236 50.8165 38.6823 48.3708 40.099C45.9624 41.4929 43.3903 42.0915 40.6317 41.5737C39.8897 42.3317 39.1726 43.067 38.4866 43.767H35.4523V47.8763V47.8804ZM33.3299 41.7497C33.5538 41.7394 33.6532 41.7311 33.7527 41.7311C34.8554 41.7311 35.958 41.7187 37.0606 41.7394C37.4192 41.7456 37.6762 41.6275 37.9187 41.3728C38.4866 40.7742 39.0835 40.2005 39.6597 39.6061C39.8939 39.3658 40.1032 39.285 40.47 39.3803C41.0545 39.5315 41.6701 39.5874 42.2753 39.6185C42.7126 39.6413 43.1644 39.604 43.5955 39.517C44.4619 39.343 45.3531 39.2043 46.1718 38.8915C47.5957 38.3468 48.7687 37.4293 49.7677 36.2528C51.1481 34.6249 51.7616 32.7318 51.8901 30.6545C51.9626 29.4656 51.7574 28.2933 51.3471 27.177C50.5615 25.0416 49.1874 23.4281 47.1666 22.3056C45.7282 21.5061 44.2173 21.2037 42.6235 21.1395C41.6058 21.0981 40.6213 21.2845 39.6472 21.6179C38.0099 22.1813 36.6337 23.0802 35.5062 24.4099C34.559 25.5304 34.0035 26.8269 33.6035 28.2001C33.2781 29.3123 33.388 30.4701 33.388 31.6113C33.388 31.6963 33.4045 31.7812 33.4273 31.8619C33.5994 32.4854 33.7735 33.1067 33.96 33.7778C30.3433 37.4148 26.7183 41.058 23.0685 44.7281V49.935H29.222V45.8258H33.2325C33.2864 45.7616 33.3278 45.7347 33.3278 45.7098C33.332 44.407 33.3299 43.1043 33.3299 41.7477V41.7497Z" fill="#A89078"/>
<path d="M43.21 28.2395C43.21 27.3759 43.7758 26.8104 44.6297 26.8125C45.6266 26.8166 46.2028 27.3469 46.2111 28.2416C46.2194 29.1467 45.5458 29.7826 44.6525 29.8074C43.8463 29.8302 43.21 29.1136 43.212 28.2395H43.21Z" fill="#A89078"/>
</g>
<defs>
<clipPath id="clip0_531_94">
<rect width="33" height="33" fill="white" transform="translate(21 19)"/>
</clipPath>
</defs>
</svg>
