<svg width="71" height="71" viewBox="0 0 71 71" fill="none" xmlns="http://www.w3.org/2000/svg">
<g clip-path="url(#clip0_531_116)">
<path d="M47.6342 29.0135C47.2859 28.451 46.9834 27.8519 46.5824 27.3306C45.5397 25.9792 44.2289 24.8977 42.7416 24.0929C41.0596 23.1828 39.2561 22.5586 37.3014 22.5083C36.5291 22.4877 35.7522 22.3711 34.9823 22.4077C32.2988 22.5334 29.8811 23.3932 27.7018 25.0006C25.4469 26.6629 23.9757 28.8626 22.9949 31.4258C22.7565 32.0454 22.6626 32.7177 22.4701 33.3556C22.4288 33.4905 22.2455 33.6734 22.1218 33.678C21.4595 33.71 20.7926 33.694 20.0479 33.694C21.0928 28.1652 23.8703 23.7865 29.0218 21.612C37.2257 18.1502 44.1281 20.3498 49.5569 27.4266C49.8617 26.919 49.6577 26.3474 49.6944 25.8123C49.731 25.2636 49.7035 24.7102 49.7035 24.1592V22.3963C50.3841 22.3963 51.0258 22.3757 51.6651 22.4145C51.7843 22.4214 51.9837 22.6752 51.986 22.817C52.0043 25.5357 51.9997 28.2543 52.002 30.973C52.002 31.3183 51.8416 31.4395 51.5093 31.4372C48.7456 31.4303 45.982 31.4303 43.2183 31.4372C42.847 31.4372 42.7096 31.2817 42.7325 30.9182C42.7554 30.5775 42.7371 30.2345 42.7371 29.8915C42.7371 29.3824 43.0044 29.1278 43.5391 29.1278C44.6826 29.1278 45.8261 29.1278 46.9697 29.1278C47.1599 29.1278 47.3501 29.1141 47.5403 29.1072C47.5723 29.0775 47.6021 29.0478 47.6342 29.018V29.0135Z" fill="#A89078"/>
<path d="M22.2412 49.6471H20V40.5742H28.9579V42.8104H24.2166C24.6611 45.3645 30.4635 49.167 33.9948 49.5877C41.0553 50.4314 48.1341 45.8675 49.4128 38.3928H51.7938C50.5952 44.4819 47.1945 48.7622 41.4082 50.9779C37.9043 52.3201 34.3225 52.3315 30.7201 51.0625C27.1521 49.8072 24.4343 47.5527 22.2412 44.3492V49.6471Z" fill="#A89078"/>
</g>
<rect opacity="0.5" x="1" y="1" width="69" height="69" rx="34.5" stroke="#A89078" stroke-width="0.5"/>
<defs>
<clipPath id="clip0_531_116">
<rect width="32" height="32" fill="white" transform="translate(20 20)"/>
</clipPath>
</defs>
</svg>
